<svg width="28" height="28" viewBox="0 0 28 28" fill="none" xmlns="http://www.w3.org/2000/svg">
<path d="M21.6196 11.0217C24.6631 11.0217 27.1304 8.55444 27.1304 5.51087C27.1304 2.4673 24.6631 0 21.6196 0C18.576 0 16.1087 2.4673 16.1087 5.51087C16.1087 8.55444 18.576 11.0217 21.6196 11.0217Z" fill="white"/>
<path d="M22.0435 21.1956H19.5C19.0318 21.1956 18.6522 21.5752 18.6522 22.0435C18.6522 22.5117 19.0318 22.8913 19.5 22.8913H22.0435C22.5118 22.8913 22.8914 22.5117 22.8914 22.0435C22.8914 21.5752 22.5118 21.1956 22.0435 21.1956Z" fill="white"/>
<path d="M6.3587 0C5.10107 0 3.87168 0.372931 2.826 1.07163C1.78031 1.77034 0.965304 2.76343 0.48403 3.92533C0.00275513 5.08723 -0.123168 6.36575 0.122183 7.59922C0.367535 8.83268 0.973142 9.96569 1.86242 10.855C2.7517 11.7443 3.88471 12.3499 5.11818 12.5952C6.35164 12.8406 7.63017 12.7146 8.79207 12.2334C9.95397 11.7521 10.9471 10.9371 11.6458 9.8914C12.3445 8.84572 12.7174 7.61633 12.7174 6.3587C12.7174 4.67226 12.0475 3.05491 10.855 1.86242C9.66249 0.669932 8.04513 0 6.3587 0ZM6.3587 11.0217C5.43644 11.0217 4.53488 10.7483 3.76805 10.2359C3.00122 9.72349 2.40354 8.99522 2.05061 8.14317C1.69767 7.29111 1.60533 6.35352 1.78525 5.44898C1.96518 4.54444 2.40929 3.71356 3.06143 3.06143C3.71357 2.40929 4.54444 1.96518 5.44898 1.78525C6.35353 1.60533 7.29111 1.69767 8.14317 2.05061C8.99523 2.40354 9.7235 3.00121 10.2359 3.76805C10.7483 4.53488 11.0217 5.43643 11.0217 6.3587C11.0195 7.59472 10.5275 8.77948 9.65349 9.65349C8.77949 10.5275 7.59473 11.0195 6.3587 11.0217Z" fill="#E8921B"/>
<path d="M22.0435 2.54348H16.9566C16.282 2.54348 15.635 2.81145 15.1581 3.28845C14.6811 3.76544 14.4131 4.41239 14.4131 5.08696V12.7174H22.0435C22.7181 12.7174 23.365 12.4494 23.842 11.9724C24.319 11.4954 24.587 10.8485 24.587 10.1739V5.08696C24.587 4.41239 24.319 3.76544 23.842 3.28845C23.365 2.81145 22.7181 2.54348 22.0435 2.54348ZM22.8913 10.1739C22.8913 10.3988 22.802 10.6144 22.643 10.7734C22.484 10.9324 22.2684 11.0217 22.0435 11.0217H16.1087V5.08696C16.1087 4.8621 16.1981 4.64645 16.3571 4.48745C16.5161 4.32846 16.7317 4.23913 16.9566 4.23913H22.0435C22.2684 4.23913 22.484 4.32846 22.643 4.48745C22.802 4.64645 22.8913 4.8621 22.8913 5.08696V10.1739Z" fill="#7C1314"/>
<path d="M4.697 14.413C4.12586 14.413 3.57811 14.6399 3.17426 15.0438C2.7704 15.4476 2.54352 15.9954 2.54352 16.5665V22.4335C2.54352 23.0046 2.7704 23.5524 3.17426 23.9562C3.57811 24.3601 4.12586 24.587 4.697 24.587H10.564C11.1351 24.587 11.6828 24.3601 12.0867 23.9562C12.4905 23.5524 12.7174 23.0046 12.7174 22.4335V14.413H4.697ZM11.0218 22.4335C11.0218 22.5549 10.9735 22.6713 10.8877 22.7572C10.8018 22.8431 10.6854 22.8913 10.564 22.8913H4.697C4.57557 22.8913 4.45912 22.8431 4.37326 22.7572C4.28741 22.6713 4.23917 22.5549 4.23917 22.4335V16.5665C4.23917 16.4451 4.28741 16.3286 4.37326 16.2428C4.45912 16.1569 4.57557 16.1087 4.697 16.1087H11.0218V22.4335Z" fill="#7C1314"/>
<path d="M24.587 14.413H14.4131V24.587C14.4131 25.2615 14.6811 25.9085 15.1581 26.3855C15.635 26.8625 16.282 27.1304 16.9566 27.1304H24.587C25.2616 27.1304 25.9085 26.8625 26.3855 26.3855C26.8625 25.9085 27.1305 25.2615 27.1305 24.587V16.9565C27.1305 16.2819 26.8625 15.635 26.3855 15.158C25.9085 14.681 25.2616 14.413 24.587 14.413ZM25.4348 24.587C25.4348 24.8118 25.3455 25.0275 25.1865 25.1865C25.0275 25.3455 24.8119 25.4348 24.587 25.4348H16.9566C16.7317 25.4348 16.5161 25.3455 16.3571 25.1865C16.1981 25.0275 16.1087 24.8118 16.1087 24.587V16.1087H24.587C24.8119 16.1087 25.0275 16.198 25.1865 16.357C25.3455 16.516 25.4348 16.7317 25.4348 16.9565V24.587Z" fill="#E8921B"/>
</svg>
