<svg width="30" height="31" viewBox="0 0 30 31" fill="none" xmlns="http://www.w3.org/2000/svg">
<circle cx="24.5" cy="9.5" r="5.5" fill="#7C1314"/>
<circle cx="7.5" cy="23.5" r="7.5" fill="#E8921B"/>
<path d="M7.71745 25.3778H22.5872C23.8171 25.3778 24.8177 24.3772 24.8177 23.1473V14.8698H25.5612C25.9719 14.8698 26.3047 14.537 26.3047 14.1263V8.17838C26.3047 6.94853 25.3041 5.94792 24.0742 5.94792H19.7808L20.5333 5.43928C21.3539 4.88496 21.8438 3.96315 21.8438 2.97396C21.8438 1.33402 20.5097 0 18.8698 0C17.5288 0 16.3481 0.903417 15.9986 2.19659L15.1523 5.32834L14.306 2.19659C13.9566 0.903417 12.7759 0 11.4349 0C9.79496 0 8.46094 1.33402 8.46094 2.97396C8.46094 3.96315 8.95079 4.88496 9.77134 5.43928L10.5239 5.94792H6.23047C5.00061 5.94792 4 6.94853 4 8.17838V14.1263C4 14.537 4.33283 14.8698 4.74349 14.8698H5.48698V23.1473C5.48698 24.3772 6.48759 25.3778 7.71745 25.3778ZM6.97396 23.1473V14.8698H12.9219V23.8908H7.71745C7.30756 23.8908 6.97396 23.5572 6.97396 23.1473ZM14.4089 7.4349C14.7401 7.4349 15.3938 7.4349 15.8958 7.4349V23.8908H14.4089V7.4349ZM23.3307 23.1473C23.3307 23.5572 22.9971 23.8908 22.5872 23.8908H17.3828V14.8698H23.3307V23.1473ZM24.8177 8.17838V13.3828H17.3828V8.48643L20.5746 11.678C20.8648 11.9684 21.3357 11.9684 21.6259 11.678C21.9164 11.3878 21.9164 10.9171 21.6259 10.6267L18.4343 7.4349H24.0742C24.4841 7.4349 24.8177 7.7685 24.8177 8.17838ZM17.4341 2.58459C17.6088 1.9383 18.1991 1.48698 18.8698 1.48698C19.6898 1.48698 20.3568 2.15399 20.3568 2.97396C20.3568 3.46865 20.1117 3.92965 19.7008 4.2073L17.1251 5.94792H16.5253L17.4341 2.58459ZM10.6039 4.2073C10.193 3.92965 9.94792 3.46865 9.94792 2.97396C9.94792 2.15399 10.6149 1.48698 11.4349 1.48698C12.1056 1.48698 12.6959 1.9383 12.8706 2.58459L13.7794 5.94792H13.1796L10.6039 4.2073ZM5.48698 8.17838C5.48698 7.7685 5.82058 7.4349 6.23047 7.4349H11.8703L8.67876 10.6267C8.38833 10.9171 8.38833 11.3878 8.67876 11.678C8.96899 11.9684 9.43967 11.9684 9.7301 11.678L12.9219 8.48643V13.3828H5.48698V8.17838Z" fill="white"/>
</svg>
