<svg width="29" height="27" viewBox="0 0 29 27" fill="none" xmlns="http://www.w3.org/2000/svg">
<circle cx="6" cy="6" r="6" fill="#7C1314"/>
<circle cx="16" cy="13" r="2" fill="white"/>
<path d="M8.52754 2.00067C8.11841 2.01346 7.75897 2.23657 7.45815 2.54742L5.79971 4.25784C5.7602 4.29682 5.72863 4.34356 5.70685 4.39533C5.68507 4.4471 5.67351 4.50286 5.67287 4.5593C5.67222 4.61575 5.68249 4.67172 5.70308 4.72401C5.72367 4.7763 5.75416 4.8238 5.79276 4.86374C5.83136 4.90369 5.8773 4.93526 5.92787 4.95661C5.97844 4.97795 6.03263 4.98866 6.08726 4.98807C6.14188 4.98747 6.19584 4.97563 6.24597 4.95319C6.2961 4.93076 6.34138 4.89817 6.37916 4.8574L6.94982 4.26774L10.2971 7.81324C10.6772 8.24063 11.2872 7.62659 10.8837 7.22275L7.52848 3.66978L8.03521 3.14615C8.24521 2.92915 8.41441 2.85152 8.55152 2.84718C8.68871 2.84238 8.85418 2.90056 9.09181 3.14615L12.6085 6.77677C12.7738 6.94758 12.7738 7.20225 12.6085 7.37306L10.7111 9.33291C10.2308 9.82916 10.0702 10.4045 10.1252 10.8881C10.1803 11.3716 10.4102 11.749 10.6024 12.0055C11.3451 12.9968 12.4978 14.738 14.3932 16.6966C16.2886 18.6551 17.9744 19.847 18.9337 20.6145C19.182 20.8131 19.5472 21.0508 20.0151 21.1076C20.4831 21.1645 21.0391 20.9984 21.5193 20.5022L22.0868 19.9175L25.4404 23.4581C25.8191 23.9258 26.4684 23.2686 26.0239 22.8676L22.6638 19.3212L23.4167 18.5449C23.582 18.374 23.8285 18.374 23.9938 18.5449L27.5065 22.1746C27.7441 22.4202 27.8008 22.5921 27.7966 22.7338C27.792 22.8755 27.7165 23.0503 27.5065 23.2673L25.8512 24.9777C25.1606 25.6913 24.2532 25.6987 23.6853 25.6987C21.541 25.6987 17.7266 24.8668 12.1066 19.0594C6.4865 13.252 5.68142 9.31138 5.68142 7.0956C5.68142 6.88412 5.68019 6.62412 5.71497 6.34566C5.72633 6.28858 5.72616 6.22972 5.71445 6.17271C5.70274 6.1157 5.67975 6.06179 5.64693 6.0144C5.61411 5.967 5.57217 5.92714 5.52373 5.89729C5.47529 5.86744 5.42141 5.84822 5.36545 5.84091C5.3095 5.8336 5.25269 5.83836 5.19858 5.85481C5.14448 5.87126 5.09425 5.89905 5.05105 5.93651C5.00784 5.97397 4.9726 6.02028 4.94752 6.07248C4.92245 6.12469 4.90809 6.18166 4.90534 6.23987C4.86296 6.58139 4.86298 6.88235 4.86298 7.09467C4.86298 9.52972 5.80585 13.7403 11.5303 19.6556C17.2547 25.5709 21.3288 26.5452 23.6853 26.5452C24.2548 26.5452 25.4886 26.5516 26.4315 25.5772L28.0867 23.8668C28.3875 23.556 28.6032 23.1813 28.6158 22.7585C28.6282 22.3357 28.427 21.9275 28.0867 21.5758L24.574 17.9452C24.0981 17.4534 23.3124 17.4534 22.8365 17.9452L20.943 19.9059C20.6049 20.2553 20.3513 20.2971 20.1086 20.2676C19.866 20.2382 19.6191 20.0931 19.4357 19.9464C18.4353 19.1461 16.8149 18.0005 14.9735 16.0977C13.132 14.1948 12.0234 12.5204 11.249 11.4867C11.107 11.2972 10.9666 11.0413 10.9381 10.7905C10.9095 10.5398 10.9534 10.2786 11.2913 9.92911L13.1855 7.97258C13.6614 7.48083 13.6614 6.66887 13.1855 6.1771L9.67205 2.54732C9.33175 2.19565 8.93666 1.98768 8.52754 2.00067Z" fill="#E8921B"/>
</svg>
