<svg width="104" height="90" viewBox="0 0 104 90" fill="none" xmlns="http://www.w3.org/2000/svg">
<path fill-rule="evenodd" clip-rule="evenodd" d="M71.2146 0.570175C70.9448 0.895451 70.817 1.64887 70.931 2.24442C71.073 2.98796 70.5903 4.60961 69.39 7.41996C67.4424 11.9813 66.4924 13.9298 66.0735 14.2246C65.3052 14.7652 64.8716 16.2345 65.264 16.9677C66.1878 18.6942 68.6478 18.2542 69.0502 16.2906C69.6005 13.6034 70.0942 12.2417 70.4408 12.4558C71.0062 12.8056 70.8946 14.4102 70.1809 16.1949C69.8307 17.0698 69.6507 18.2098 69.7809 18.7278C70.0507 19.8042 71.3907 20.3048 72.464 19.7302C73.1053 19.3867 73.1797 18.8881 73.0875 15.5321L72.9831 11.7237L75.0119 10.8262C76.696 10.0811 77.5427 9.29721 77.5427 8.48283C77.5427 8.40725 77.263 8.06575 76.9211 7.72346C75.8494 6.65187 74.6704 6.97912 73.1243 8.77684C72.3264 9.70518 71.5434 10.3344 71.3844 10.1757C71.2257 10.0166 71.7507 8.45396 72.5511 6.70254C74.2997 2.87639 74.6499 1.37743 73.9828 0.573339C73.3494 -0.189595 71.8465 -0.191572 71.2146 0.570175ZM48.9722 3.17554C48.08 4.38246 48.0701 4.38524 47.8553 3.47431C47.6179 2.4692 46.7519 2.15104 45.2679 2.5234C44.1162 2.81267 43.975 4.24397 44.951 5.73383C45.4677 6.52249 45.5638 7.52917 45.4455 10.9165C45.2841 15.5507 45.565 16.1743 47.5855 15.667C48.8376 15.3524 49.2214 14.3081 48.641 12.7929C47.9926 11.1001 47.9582 6.45957 48.5896 5.83592C49.5937 4.84427 50.1396 6.44571 50.2041 10.5714C50.2568 13.948 50.3656 14.508 51.0895 15.115C52.1229 15.9824 52.3191 15.9788 53.4384 15.0723L54.3463 14.3366L53.4823 12.3276C52.8236 10.7958 52.6182 9.53424 52.6182 7.01751C52.6182 3.45649 52.0292 1.95754 50.6294 1.95754C50.2132 1.95754 49.4675 2.5056 48.9722 3.17554ZM59.1449 4.05599C57.6118 5.58938 56.5745 8.67158 56.5745 11.694C56.5745 13.3279 56.7838 14.0173 57.5612 14.9412C59.2727 16.9756 62.4804 16.976 63.1257 14.942C63.4766 13.8364 62.1061 12.6418 60.4869 12.6418C58.5534 12.6418 59.0143 11.3486 61.3355 10.2612C64.7153 8.67793 65.8848 5.61868 63.8358 3.71926C62.3396 2.33268 60.7543 2.44623 59.1449 4.05599ZM60.2056 6.90711C59.6651 8.09385 59.5995 9.08036 60.0604 9.08036C60.7187 9.08036 62.1528 7.40215 62.0318 6.77376C61.8272 5.71127 60.7131 5.79278 60.2056 6.90711ZM37.7823 8.88883C37.1295 9.18166 36.2263 9.33284 35.7749 9.2252C34.658 8.95889 33.9431 9.93906 34.0958 11.5278C34.2165 12.7854 34.2853 12.8357 35.7594 12.7462C37.8784 12.6176 40.046 10.9465 39.8819 9.56826C39.7343 8.32771 39.3276 8.19634 37.7823 8.88883ZM24.8303 9.10925C23.194 10.0629 23.2406 10.9185 25.0388 12.9433C27.263 15.4482 28.578 17.6052 28.4107 18.4746C28.1322 19.9209 27.022 19.0559 24.6067 15.5107C22.7058 12.7197 21.9022 11.8503 21.2241 11.8503C19.0533 11.8503 18.6906 14.2369 20.6829 15.4126C21.4156 15.8451 22.8929 17.5625 24.0786 19.3602C26.2427 22.6406 27.1941 23.493 28.2433 23.0902C28.7861 22.882 29.3491 21.8508 29.5192 20.7539C29.5529 20.5362 29.6011 20.2205 29.6264 20.0523C29.6514 19.8841 30.0814 20.0147 30.5819 20.3427C31.3945 20.8754 31.5852 20.8738 32.3622 20.3293C33.6535 19.4247 33.4905 17.9313 32.001 17.0251C30.5542 16.1454 27.8643 12.3406 27.4928 10.6494C27.3504 10.0004 26.9041 9.29286 26.5006 9.0772C25.6263 8.60867 25.6915 8.60748 24.8303 9.10925ZM81.5978 12.1123C81.326 12.2223 81.1033 12.8028 81.1033 13.4027C81.1033 14.1819 81.3858 14.6219 82.0924 14.944C82.6364 15.1921 83.0814 15.6658 83.0814 15.997C83.0814 16.4766 82.5355 16.5989 80.3896 16.5989C77.8703 16.5989 77.6186 16.6812 76.4606 17.885C74.1324 20.3055 74.3872 22.9303 76.9508 22.9303C77.9387 22.9303 78.2524 23.0783 78.1009 23.4728C77.8097 24.2326 78.9962 25.3046 80.1285 25.3046C81.1338 25.3046 81.8946 24.3038 81.8946 22.9825C81.8946 22.5473 82.8037 21.0665 83.915 19.6918C86.3916 16.6286 86.8158 15.7616 86.4838 14.4395C86.0593 12.747 83.2915 11.4289 81.5978 12.1123ZM13.5304 17.4695C12.5758 18.4243 12.9813 20.3285 14.4403 21.7432C16.5732 23.8108 16.2151 24.3988 13.6997 22.9592C11.1353 21.4919 10.1122 21.4329 9.27822 22.7059C8.29825 24.2017 9.05232 25.1566 11.6369 25.6932C14.1547 26.2159 15.6407 27.5028 16.2226 29.6642C16.4422 30.4805 16.8778 31.3606 17.1907 31.6202C18.7657 32.9276 21.1157 30.6688 20.1512 28.7746C19.9 28.2807 19.0613 27.3286 18.2874 26.6587C16.1767 24.8317 17.0099 24.2991 19.4304 25.9282C20.5373 26.6733 21.8429 27.2831 22.3315 27.2831C24.1862 27.2831 25.3066 24.5618 23.787 23.7482C23.3791 23.5298 22.2666 23.2279 21.3143 23.0767C19.3975 22.7728 17.0119 20.7875 17.0119 19.4967C17.0119 17.5957 14.7315 16.2681 13.5304 17.4695ZM79.52 18.7017C78.9804 18.9708 78.4795 19.4979 78.4075 19.8734C78.222 20.8362 79.6106 20.7586 80.5182 19.7551C81.4744 18.6986 80.8489 18.0389 79.52 18.7017ZM90.6138 20.2351C90.1703 20.7112 89.8071 21.2378 89.8071 21.4052C89.8071 21.7079 85.6775 25.0877 83.1345 26.8665C82.4018 27.3789 80.9819 27.9515 79.9786 28.1391C78.9756 28.3266 77.8837 28.7508 77.5526 29.0821C77.0133 29.6214 77.024 29.8129 77.6546 30.9118C78.042 31.5865 78.2508 32.247 78.1187 32.3787C77.987 32.5109 77.7009 32.3008 77.4837 31.9122C77.2234 31.4468 76.8282 31.2881 76.3265 31.4476C75.6951 31.6478 75.5646 31.4947 75.5646 30.5545C75.5646 29.4877 74.9636 28.4703 74.3334 28.4703C74.1783 28.4703 73.931 29.1834 73.7838 30.0547C73.6311 30.9597 73.3463 31.5343 73.1204 31.3946C72.898 31.2573 72.8335 30.566 72.9732 29.8209C73.3427 27.8518 71.6672 24.9445 71.1118 26.5906C71.0196 26.8629 70.6469 26.5119 70.2833 25.8111C69.9194 25.1099 69.2678 24.347 68.835 24.1151C68.107 23.7257 68.0477 23.8195 68.0477 25.3564C68.0477 27.0449 67.6053 27.1985 67.3719 25.5911C67.22 24.5472 66.0418 22.8551 65.2929 22.6054C64.8925 22.4721 64.8233 22.7321 65.0104 23.6687C65.3012 25.123 65.1521 25.1783 63.8038 24.1174C62.6747 23.2291 59.9634 23.0039 60.2317 23.8207C60.492 24.6141 62.9294 26.0925 64.051 26.1368C64.906 26.1708 64.8288 26.2448 63.5969 26.572C62.7811 26.7885 62.1133 27.1122 62.1133 27.2911C62.1133 27.8308 64.3996 28.1588 66.1281 27.8668C67.2754 27.6729 67.6726 27.7212 67.4811 28.0314C67.3316 28.2728 66.6863 28.4703 66.0462 28.4703C65.4061 28.4703 64.8826 28.642 64.8826 28.8521C64.8826 29.3812 66.2333 30.0531 67.2964 30.0531C67.7822 30.0531 68.0623 30.1703 67.9191 30.3135C67.3003 30.9324 68.6577 31.636 70.4697 31.636C72.7117 31.636 73.0705 32.2624 70.969 32.5077C69.9633 32.6253 69.0533 32.3989 67.9029 31.7452C61.1448 27.904 56.4606 26.6433 50.2591 26.9966C47.8011 27.1363 45.4368 27.5566 43.4749 28.202C40.5865 29.1525 36.235 31.3348 35.7887 32.0566C35.545 32.4507 33.2243 32.1001 32.6589 31.5837C32.4409 31.3847 32.992 31.2403 33.9708 31.2403C35.9351 31.2403 37.3368 30.6134 37.0492 29.864C36.9155 29.5157 37.3036 29.2542 38.2052 29.0848C39.9776 28.7524 39.9281 28.2447 38.079 27.7813L36.5954 27.4094L38.3757 26.9139C40.1279 26.426 41.5407 25.5036 41.5407 24.8475C41.5407 24.6635 40.7906 24.5132 39.8743 24.5132C38.5359 24.5132 38.0323 24.7276 37.317 25.6014L36.4261 26.6896L36.4118 25.4035C36.4039 24.696 36.2298 24.1174 36.0245 24.1174C35.3061 24.1174 34.4195 25.8894 34.4195 27.3251C34.4195 28.479 34.6007 28.832 35.3096 29.0595C36.0629 29.3017 36.0933 29.3741 35.5082 29.5304C34.4788 29.8054 33.6282 28.712 33.6282 27.1134C33.6282 25.4565 33.1811 25.3137 32.2835 26.684C31.8198 27.3924 31.7102 28.113 31.893 29.2562C32.0631 30.3214 31.9998 30.8446 31.7007 30.8446C31.4554 30.8446 31.2517 30.4437 31.2485 29.9542C31.245 29.4647 31.0638 28.7967 30.8454 28.4703C30.5024 27.9578 30.3639 27.9847 29.8298 28.6681C29.3661 29.2613 29.2696 29.9799 29.4449 31.537C29.7044 33.8421 29.2004 34.3296 28.6263 32.3285C28.1686 30.7314 27.1478 30.6285 26.9722 32.1619C26.8836 32.9359 26.6711 33.2149 26.2838 33.0661C25.923 32.9276 25.6366 33.1982 25.4791 33.8262C25.1978 34.9469 24.8323 35.0506 24.1332 34.2081C23.1504 33.0237 22.6504 33.5516 22.4763 35.9568C22.2686 38.8308 20.8792 41.0421 18.3499 42.5244C16.3208 43.7139 16.2927 43.8995 17.2125 50.0061C17.5824 52.4603 18.058 54.213 18.4805 54.6799C19.064 55.3249 19.0775 55.4781 18.5786 55.8013C18.0991 56.1124 18.1667 56.3047 18.9798 56.9343C19.913 57.6569 19.9269 57.7277 19.2765 58.4463C18.9014 58.861 18.5944 59.6437 18.5944 60.1854C18.5944 61.5851 19.7018 65.1382 20.8368 67.3803C21.5292 68.7475 21.6874 69.4321 21.3935 69.7866C20.8115 70.4878 22.3034 71.9987 23.5785 71.9987C24.1269 71.9987 24.4837 72.1471 24.3717 72.3283C24.2598 72.5099 23.626 72.5784 22.9637 72.4814C22.3014 72.3841 21.7606 72.4585 21.7622 72.6465C21.7669 73.2471 24.4904 74.868 25.1013 74.6337C25.4253 74.5091 25.7956 74.5779 25.9242 74.7861C26.0535 74.9954 25.6172 75.1644 24.9478 75.1644C24.2823 75.1644 23.7376 75.3155 23.7376 75.4999C23.7376 76.0338 26.7965 77.2684 27.4746 77.008C27.8129 76.8782 28.0894 76.9447 28.0894 77.1552C28.0894 77.3661 27.5553 77.5386 26.9026 77.5386C25.3612 77.5386 25.3671 78.2802 26.9109 78.5889C28.5832 78.9236 28.7319 79.4139 27.5391 80.6592C26.9714 81.252 26.5069 81.8333 26.5069 81.9516C26.5069 82.2654 27.7983 83.7256 30.7148 86.7101L33.2971 89.3522L34.8384 88.8081C38.4339 87.5395 44.8988 86.2427 47.5934 86.2498C51.2066 86.2593 52.7148 87.0868 50.1472 87.6507C48.4859 88.0155 46.2882 89.0665 46.2882 89.4959C46.2882 90.3478 47.572 90.1203 50.1495 88.8105C53.2948 87.2122 54.0021 87.2435 57.9584 89.1532C59.9741 90.1263 60.9264 90.1362 60.9264 89.1841C60.9264 88.8683 59.9369 88.3554 58.5273 87.9403C56.0084 87.1984 55.5166 86.6155 57.0457 86.1849C59.7466 85.424 65.7 86.1454 70.6837 87.8374L72.993 88.6217L75.1135 86.3448C76.2798 85.0924 77.8647 83.3046 78.635 82.3715L80.0359 80.6747L78.9871 79.5797C77.6424 78.1757 77.6669 77.7472 79.1252 77.1429C80.7603 76.4655 80.6412 75.7987 78.9345 76.0757C78.1769 76.1987 77.4545 76.1331 77.3287 75.9297C77.2032 75.7263 77.71 75.5601 78.455 75.5601C79.9778 75.5601 82.2767 74.0623 81.4958 73.5795C81.1856 73.388 81.4388 73.0006 82.2538 72.4205C83.8766 71.2646 83.8497 70.5155 82.1913 70.6817C81.4839 70.7522 81.1725 70.696 81.4989 70.5567C83.1989 69.8298 84.2331 68.7522 84.2113 67.7301C84.1987 67.1397 84.5559 65.6582 85.0054 64.4378C85.4544 63.2174 85.9948 61.1696 86.2057 59.8871C86.5471 57.8147 86.5008 57.4305 85.7907 56.4369C85.0204 55.359 85.0168 55.2901 85.7021 54.5331C86.3082 53.8631 86.3283 53.6954 85.8405 53.3938C85.3618 53.0979 85.4061 52.9111 86.1115 52.2538C86.8502 51.5657 86.991 50.8494 87.2415 46.51C87.3985 43.7836 87.429 41.2969 87.3091 40.9843C87.1892 40.6721 86.5768 40.3033 85.9485 40.1652C83.3568 39.5957 80.3433 35.8495 80.3208 33.169C80.3136 32.3059 80.9522 31.6692 84.0927 29.4097C86.1721 27.9135 88.5209 26.1922 89.3121 25.5839C90.8195 24.4257 92.3015 24.2947 92.4688 25.3046C92.5947 26.0636 88.7452 28.866 87.5769 28.866C85.9145 28.866 84.6636 29.5854 84.6699 30.5379C84.6806 32.1124 85.2273 32.5584 86.7877 32.2656C89.3062 31.7931 95.5896 27.1336 96.2471 25.2512C96.6043 24.2286 95.4032 22.827 94.3433 23.0296C93.5204 23.1871 93.4563 23.0866 93.6435 21.9323C93.8088 20.9142 93.6664 20.5331 92.9274 20.0151C91.7389 19.1825 91.5799 19.1976 90.6138 20.2351ZM70.6315 28.1905C70.4622 28.5807 70.4349 29.0112 70.5702 29.147C70.9721 29.5486 71.2962 28.9843 71.111 28.2044C70.9472 27.513 70.9258 27.5127 70.6315 28.1905ZM46.0904 29.126C39.5776 30.5165 33.1475 34.8575 29.6399 40.2313C26.5247 45.0047 24.9252 50.1561 26.2533 51.1406C26.6086 51.4038 27.0893 52.6562 27.3219 53.9237C27.5546 55.1912 28.3383 57.6359 29.0639 59.3572L30.3833 62.4861L28.9657 63.3844C28.186 63.8783 27.3987 64.3844 27.2163 64.509C26.4183 65.0543 29.1794 69.5405 32.3899 72.9144C33.18 73.7442 35.02 75.2119 36.4791 76.1758L39.1321 77.928L43.4025 77.3507C45.7514 77.0329 48.7067 76.6641 49.9703 76.5311L52.2681 76.289L52.1463 75.0373C52.0015 73.5451 51.5164 73.3955 48.0349 73.7683C45.7225 74.016 45.5322 74.111 45.3783 75.0943C45.2173 76.1255 45.205 76.1299 44.913 75.2633C44.7069 74.6511 44.2982 74.3729 43.6047 74.3729C41.8881 74.3729 43.0603 73.7995 45.6267 73.3837C47.756 73.0386 48.0856 72.868 48.2011 72.0521C48.2739 71.5373 48.1706 70.9532 47.972 70.7545C47.6326 70.415 42.2797 70.8416 39.2366 71.4506C38.4885 71.6002 37.9801 71.54 37.9801 71.3022C37.9801 71.0826 39.004 70.7826 40.2549 70.6358C43.7064 70.2306 43.9528 70.1131 43.6747 69.0039C43.5275 68.4183 43.6047 68.0415 43.8717 68.0415C44.1127 68.0415 44.3101 68.4032 44.3101 68.8452C44.3101 69.9667 44.9012 70.0929 48.4895 69.7376L51.6292 69.4265L51.7506 67.7448L51.8725 66.063H50.0668C47.8106 66.063 41.3263 67.0143 36.4518 68.0605C33.5582 68.6814 32.6229 68.7522 32.1798 68.3846C31.743 68.0218 31.7244 67.8445 32.0987 67.613C32.3658 67.448 32.5968 66.634 32.6118 65.8046C32.6304 64.7789 32.829 64.2704 33.2326 64.215C33.559 64.1699 34.8499 64.0203 36.1009 63.8826C38.3144 63.6384 38.3757 63.5993 38.3757 62.4331V61.2345L35.1118 61.3734L31.8479 61.5123L31.7316 58.6434C31.5994 55.3752 31.3985 55.5109 35.3955 56.1658C37.878 56.5722 38.1312 56.4887 38.5411 55.1279C38.8188 54.2066 38.9094 54.2474 34.7162 53.4053C32.7824 53.0167 32.4413 52.8193 32.4417 52.086C32.4421 51.1019 34.5271 46.5021 35.1462 46.1195C35.3717 45.9798 36.544 46.6707 37.7518 47.6544C40.158 49.6148 40.9133 49.8245 41.5158 48.6983C41.8497 48.0747 41.5633 47.6224 39.7493 45.9062C38.5585 44.78 37.5845 43.5968 37.5845 43.2771C37.5845 42.6198 42.1824 39.5597 43.179 39.5542C43.6007 39.5514 44.2203 40.4509 44.9482 42.1224C46.0477 44.6462 46.3832 44.9371 47.6405 44.4543C48.4986 44.1251 48.4634 43.877 46.8314 38.7655C45.192 33.6284 45.2347 33.4848 48.5548 32.9866C50.7177 32.6625 55.7069 32.9842 56.2026 33.48C56.4222 33.6996 56.1911 35.396 55.6167 37.7846C55.0949 39.9527 54.6074 42.2609 54.5331 42.9138C54.4108 43.9941 54.5034 44.1009 55.5609 44.1009C56.6129 44.1009 56.8135 43.875 57.6704 41.7266C58.1914 40.4208 58.7714 39.1929 58.9593 38.9978C59.3035 38.6409 64.5986 41.5403 65.1082 42.3649C65.2537 42.6004 64.4198 43.7582 63.255 44.9383C61.4925 46.7229 61.2097 47.1982 61.5689 47.7684C62.3032 48.9349 63.0624 48.7442 65.088 46.884C66.1625 45.8975 67.1512 45.0902 67.2853 45.0902C68.0275 45.0902 70.817 49.7671 70.817 51.0116C70.817 51.4857 70.0685 51.8862 68.1517 52.4374C65.5054 53.1988 64.8981 53.7971 65.6252 54.9268C65.9148 55.3767 66.4406 55.3578 68.8397 54.8121C70.4175 54.4532 71.8164 54.2676 71.9485 54.4001C72.0807 54.5323 72.2555 55.9565 72.3366 57.5643L72.4842 60.4882L69.3758 60.6045C66.5538 60.7102 66.2563 60.798 66.1479 61.5598C66.0098 62.5265 66.9075 62.8834 69.4988 62.8917C71.9311 62.8997 72.3995 63.1897 72.3995 64.6875C72.3995 65.4077 72.5879 66.0598 72.8177 66.1366C73.05 66.2137 73.1133 66.596 72.9605 66.9945C72.7346 67.5825 72.4249 67.6636 71.2562 67.4412C66.3421 66.5062 62.0816 66.0764 57.6625 66.0701L52.6182 66.063V67.5896V69.1159L55.0502 69.3703C59.6078 69.8468 60.0402 69.77 60.3337 68.4337C60.4774 67.7788 60.7507 67.3395 60.9414 67.4571C61.1317 67.575 61.1863 67.9347 61.0625 68.2572C60.6799 69.2548 61.7109 70.0197 63.4473 70.026C64.3458 70.0296 65.3475 70.2219 65.6739 70.4538C66.1012 70.7577 65.4373 70.7925 63.3001 70.5788C61.6682 70.4154 59.5318 70.2674 58.5526 70.25C56.8328 70.2191 56.7723 70.2583 56.7723 71.3996C56.7723 72.1506 56.9887 72.6104 57.3658 72.6615C57.6921 72.7054 59.0274 72.872 60.3329 73.0315C62.3012 73.2717 62.5037 73.3607 61.5198 73.553C60.6779 73.7172 60.2962 74.0441 60.206 74.678C60.0596 75.7045 59.3439 75.477 59.3439 74.4042C59.3439 73.8336 58.9055 73.6389 57.1569 73.4335C53.9179 73.0524 53.0139 73.3836 53.0139 74.9495V76.2316L58.8493 76.5541C66.7979 76.9938 66.6408 77.0076 68.5003 75.7188C72.2753 73.1015 77.2218 66.9755 77.769 64.2387C77.9893 63.1367 77.8675 62.9697 76.1928 62.0809C74.4485 61.1553 73.971 60.3125 74.7393 59.5139C75.2105 59.0244 77.1463 51.9052 77.1467 50.6614C77.147 50.1343 77.4268 49.394 77.7686 49.0161C78.3339 48.3916 78.3316 48.1562 77.7409 46.4162C75.8146 40.7409 71.1165 35.1887 65.6434 32.1191C59.8709 28.8814 52.5122 27.7552 46.0904 29.126ZM5.2733 29.5684C4.5315 30.0405 4.20273 31.9688 4.75186 32.6304C5.02049 32.9541 5.7077 33.2188 6.27937 33.2192C7.58019 33.2192 11.4391 34.6596 12.3633 35.4894C13.2143 36.2539 13.2653 37.176 12.4567 37.176C12.1271 37.176 10.312 36.5527 8.42327 35.791C3.61444 33.8516 2.37376 33.977 2.37376 36.4031C2.37376 37.318 3.75211 38.113 4.84365 37.8277C5.29229 37.7102 7.48524 38.3148 9.78857 39.1909C12.065 40.0567 14.2461 40.6642 14.6358 40.5403C15.6142 40.2297 15.9152 38.7576 15.2181 37.6935C14.4261 36.4846 14.4696 36.3845 15.7827 36.3845C16.9431 36.3845 17.4075 35.8135 17.4075 34.3874C17.4075 33.4705 16.2741 32.8231 14.6682 32.8231C13.1027 32.8231 8.58073 31.0104 7.68978 30.0258C6.97211 29.2324 6.07009 29.0615 5.2733 29.5684ZM68.8389 30.0531C68.8389 30.2708 69.0169 30.4488 69.2345 30.4488C69.4521 30.4488 69.6302 30.2708 69.6302 30.0531C69.6302 29.8355 69.4521 29.6574 69.2345 29.6574C69.0169 29.6574 68.8389 29.8355 68.8389 30.0531ZM96.3986 32.6894L94.4842 34.516L91.6139 34.2734C88.1977 33.9845 87.2252 34.4285 87.6414 36.0869C88.0454 37.6963 88.7828 38.0952 90.897 37.8491C91.9296 37.7288 93.1747 37.5072 93.6644 37.3568C94.333 37.1518 94.5546 37.2428 94.5546 37.7232C94.5546 38.0754 94.2428 38.3639 93.8623 38.3647C93.0912 38.3663 90.5615 39.7991 90.1097 40.4904C89.6564 41.1845 89.7568 42.9031 90.2818 43.4282C91.208 44.3546 92.3707 43.9185 94.0213 42.0266L95.6639 40.1438L98.7383 40.234C100.531 40.2871 102.032 40.143 102.338 39.889C103.207 39.1676 102.957 37.6512 101.848 36.9251C100.977 36.3541 100.555 36.3248 98.8511 36.7181C96.4556 37.2713 96.1371 37.282 96.1371 36.8111C96.1371 36.6101 96.7428 36.246 97.4834 36.0015C100.283 35.0771 101.648 32.8512 100.263 31.4662C99.2728 30.4757 98.4436 30.7385 96.3986 32.6894ZM50.3592 34.3268C49.9857 34.5639 49.9925 35.1123 50.3889 36.8186C51.0361 39.6032 51.2624 39.9459 52.4537 39.9459C53.546 39.9459 54.0829 38.9373 54.4619 36.1732C54.666 34.6818 54.5976 34.4982 53.7521 34.2718C52.4837 33.9319 50.9408 33.9572 50.3592 34.3268ZM78.2825 37.2749C78.148 41.6697 78.3225 43.3103 79.1382 45.3201C79.6169 46.4997 80.1214 47.4617 80.259 47.4582C80.6191 47.4491 83.0814 45.2346 83.0814 44.9204C83.0814 44.7752 82.6364 44.2442 82.0924 43.74C80.6571 42.4093 80.8798 42.1093 82.4263 43.2893C83.1542 43.8445 83.8664 44.2988 84.0088 44.2988C84.3724 44.2988 84.3352 43.1144 83.9716 43.0998C83.8082 43.0934 82.8737 42.3598 81.8946 41.4694C80.9154 40.5795 80.5593 40.1434 81.1033 40.5011C81.6473 40.8589 82.6265 41.5027 83.2793 41.932C84.5666 42.7792 85.8508 42.9636 85.8508 42.3016C85.8508 42.0741 85.2875 41.5842 84.5987 41.2134C82.6593 40.1695 80.4553 38.0817 79.9149 36.7759C79.1806 35.0035 78.3442 35.2591 78.2825 37.2749ZM22.8185 39.6408C21.9153 41.4865 20.4084 43.0179 18.2471 44.2861C17.7015 44.6063 17.9476 45.4859 18.5821 45.4859C18.7673 45.4859 19.8695 44.7487 21.0315 43.8477L23.1441 42.2098L21.2649 44.1583C20.2311 45.2299 19.3857 46.2342 19.3857 46.3897C19.3857 46.9999 20.3878 46.6212 21.5177 45.5848L22.7042 44.4966L21.5913 45.8694L20.478 47.2417L21.7962 48.3426C22.521 48.9476 23.3261 49.443 23.5848 49.443C24.185 49.443 24.869 47.487 25.1681 44.9173C25.4063 42.8699 24.7959 38.4719 24.189 37.8649C24.0034 37.6793 23.3874 38.4771 22.8185 39.6408ZM41.1502 41.9067L40.1663 42.6629L41.1202 43.6787C42.8637 45.535 44.6792 44.6676 43.8191 42.3887C43.2779 40.9546 42.5583 40.8248 41.1502 41.9067ZM60.1379 42.3131C59.2181 44.5342 60.6724 45.8385 62.3313 44.2798C63.5862 43.1006 63.5525 42.64 62.1512 41.8121C60.6728 40.9384 60.7116 40.9289 60.1379 42.3131ZM0.870376 43.9822C0.299883 44.5528 0.248452 46.4499 0.776217 47.4364C1.16512 48.1633 2.45367 48.7826 4.52912 49.24C5.42957 49.4387 5.56487 49.5799 5.12256 49.8597C4.80764 50.0592 4.04251 50.225 3.42256 50.2285C2.17476 50.2353 0 52.2213 0 53.3539C0 54.2593 1.11092 55.7744 1.77438 55.7744C2.65861 55.7744 3.56063 54.6091 3.56063 53.467C3.56063 52.8252 3.8803 52.2035 4.36692 51.8996C5.23927 51.3547 10.4758 50.576 11.2556 50.8751C12.0156 51.1668 13.8469 50.3112 13.8469 49.6646C13.8469 48.7482 12.713 48.3964 9.52786 48.3244C5.76071 48.2393 3.81463 47.3687 3.62473 45.6838C3.39882 43.6819 2.02125 42.8311 0.870376 43.9822ZM9.81706 44.4301C8.52693 45.1705 8.16295 45.2148 6.66234 44.8144C4.76531 44.3079 4.35188 44.421 4.35188 45.4459C4.35188 46.442 6.09422 47.1345 9.18762 47.3683C12.2411 47.599 13.8469 46.9061 13.8469 45.3581C13.8469 43.3993 12.2525 43.0321 9.81706 44.4301ZM49.4532 46.0577C48.2565 46.3288 46.8322 46.7368 46.2882 46.9639C44.5506 47.6892 41.9767 50.6765 41.0996 52.9851C40.0547 55.7365 39.6512 61.3619 40.3479 63.4734L40.8405 64.9657L42.872 64.6531C43.9893 64.4813 49.1462 64.3238 54.3321 64.3032C65.3582 64.2597 64.72 64.5478 64.3743 59.7719C64.0609 55.4401 62.7435 52.1469 60.3329 49.6678C57.0694 46.3122 53.5226 45.1349 49.4532 46.0577ZM90.6775 45.9608C89.4154 47.2231 90.7071 49.2329 93.0188 49.6025C95.728 50.0358 95.7106 50.4197 92.9721 50.6302C90.5156 50.8193 90.395 50.8767 90.2751 51.919C90.1022 53.4231 90.9615 53.6578 95.5547 53.361C99.6293 53.0978 100.84 52.5648 99.5407 51.6056C99.1276 51.3005 98.6505 51.1375 98.48 51.2427C98.3095 51.3484 98.0511 51.2424 97.9059 51.0073C97.5095 50.3655 98.9441 48.9959 99.8738 49.1288C100.593 49.2317 100.674 49.485 100.576 51.3255C100.475 53.2122 100.557 53.448 101.454 53.8568C102.734 54.4401 103.54 53.8165 103.885 51.9756C104.448 48.9737 102.862 45.8816 100.759 45.8816C100.235 45.8816 99.147 46.4055 98.3411 47.0462C96.7025 48.3493 96.251 48.3038 94.0834 46.6204C92.5203 45.406 91.441 45.1971 90.6775 45.9608ZM35.0449 48.4783C34.7007 48.8226 34.4195 49.5167 34.4195 50.0208C34.4195 50.7564 34.6948 50.9895 35.8109 51.1988C36.576 51.3425 37.3772 51.352 37.5912 51.2194C38.208 50.8383 38.0438 49.6203 37.2877 48.971C36.0688 47.9239 35.6835 47.8392 35.0449 48.4783ZM52.0695 48.9741C52.2555 49.9044 52.0671 50.4909 51.23 51.589C50.6362 52.3674 49.996 53.0045 49.8073 53.0045C49.6182 53.0045 49.1708 52.3369 48.8123 51.5205L48.1603 50.0366L47.8213 51.5332C47.4387 53.2221 46.4936 55.205 45.8946 55.5754C45.675 55.7111 45.3182 55.3554 45.1014 54.7852C44.6602 53.6249 43.9145 53.7971 43.9145 55.0586C43.9145 55.5097 43.5406 56.484 43.0837 57.2235C41.7868 59.3224 42.0515 62.6725 43.558 63.2301C43.9766 63.3848 46.2309 63.3595 48.5674 63.1735C50.9044 62.9875 54.7143 62.9254 57.0342 63.035C60.7124 63.2087 61.3331 63.1454 61.8806 62.5399C62.7312 61.6001 62.6707 60.2246 61.6626 57.5904C60.8314 55.4179 60.4231 54.9882 59.9373 55.7744C59.8028 55.9921 59.476 56.1702 59.2113 56.1702C58.8861 56.1702 58.7797 55.6443 58.8838 54.5529C59.0986 52.2985 58.3833 51.6907 57.1671 53.0947C55.6657 54.8279 55.3544 54.6372 55.2681 51.9301C55.1827 49.2535 54.717 48.483 52.9162 48.0414C51.8792 47.7874 51.8408 47.8297 52.0695 48.9741ZM66.1395 49.1708C65.4088 49.9484 65.357 50.1909 65.7926 50.7865C66.1973 51.3405 66.6119 51.4299 67.7695 51.2127C69.373 50.9119 69.4541 50.754 68.7752 49.2638C68.2047 48.011 67.26 47.9777 66.1395 49.1708ZM6.17176 52.4022C4.60469 52.9605 3.8621 53.6736 4.10145 54.3895C4.23873 54.7986 4.82941 54.7923 7.01445 54.3582C7.94456 54.1734 8.67726 54.3313 9.70747 54.9391C11.3667 55.9185 12.7629 56.0107 13.4469 55.186C14.1693 54.3155 13.5977 52.6448 12.4254 52.1992C11.0028 51.6583 7.98373 51.756 6.17176 52.4022ZM78.3778 53.4821C77.744 55.1496 76.2961 60.2005 76.4266 60.2879C76.4966 60.3346 77.4541 60.9373 78.5547 61.6274C79.6549 62.3176 80.9767 63.3306 81.4918 63.879C82.5446 64.9997 83.0814 65.1465 83.0814 64.3131C83.0814 64.0033 82.1497 62.9349 81.0111 61.9389C78.4673 59.7126 78.8819 59.5187 81.4989 61.7101C83.5669 63.4418 83.8727 63.5731 83.8727 62.7283C83.8727 62.4177 83.2088 61.6163 82.3978 60.9476C80.7306 59.5729 80.9312 59.2884 82.6641 60.5697C84.5892 61.9931 85.4627 60.4545 83.7738 58.6153L82.8836 57.6458L83.7738 58.1087C84.4843 58.4787 84.6639 58.4653 84.6639 58.0423C84.6639 57.461 83.0162 55.8294 80.4133 53.8335L78.7339 52.5458L78.3778 53.4821ZM22.7576 56.983C20.3739 59.2722 20.1702 59.5942 20.4084 60.6987C20.5516 61.3639 20.8325 61.9697 21.0327 62.0453C21.2384 62.1229 21.2087 62.4094 20.9654 62.7026C20.7071 63.014 20.6825 63.3144 20.9041 63.4513C21.1078 63.5771 21.494 63.4149 21.763 63.0908C22.032 62.7667 22.4391 62.5016 22.6682 62.5016C22.8968 62.5016 22.6971 62.9139 22.2239 63.4172C21.3856 64.3104 21.0837 65.2715 21.6415 65.2715C21.7946 65.2715 22.5436 64.693 23.3059 63.9855C24.6859 62.7054 24.3385 63.3844 22.6571 65.2549C22.0554 65.9241 21.9034 66.3653 22.1796 66.6415C22.4553 66.9173 23.0507 66.5438 24.0509 65.4662C24.858 64.5976 26.1188 63.4196 26.8527 62.8486L28.1879 61.8107L27.1004 58.4958C26.5026 56.6727 25.8676 55.0222 25.69 54.8287C25.5104 54.6324 24.2115 55.5861 22.7576 56.983ZM50.47 56.5212C50.3509 56.7139 50.5183 57.0918 50.8423 57.3608C51.1663 57.6299 51.4314 58.0371 51.4314 58.2662C51.4314 58.495 51.0191 58.2951 50.5159 57.8219C49.4524 56.8231 47.4751 56.6494 47.4751 57.5552C47.4751 57.8816 47.6531 58.1487 47.8707 58.1487C48.0883 58.1487 48.2664 58.3331 48.2664 58.5583C48.2664 58.8408 48.0286 58.8408 47.5012 58.5583C45.5393 57.5081 44.1511 58.6121 44.3853 61.0358L44.5079 62.3037L51.2336 62.4165C58.7987 62.5435 59.5797 62.4422 59.9468 61.2844C60.4683 59.6414 58.1527 56.4796 57.3634 57.757C57.1549 58.0945 56.9159 58.013 56.5262 57.4705C55.4422 55.9612 53.4119 55.8833 54.2134 57.3814C54.7843 58.4479 54.1861 58.3284 53.0712 57.1527C52.138 56.1686 50.8771 55.8623 50.47 56.5212ZM68.9145 56.8441C68.1909 56.9857 68.0263 57.2425 68.1232 58.0803C68.2289 58.9944 68.4508 59.155 69.756 59.2623C71.2483 59.3853 71.2649 59.3707 71.1407 58.0787C71.0109 56.7273 70.6208 56.5109 68.9145 56.8441ZM32.8369 58.1254C32.8369 59.5472 33.0332 59.671 34.914 59.4352C36.1388 59.2816 36.3976 59.0925 36.3976 58.3494C36.3976 57.4254 35.5335 56.9778 33.7271 56.9671C33.0047 56.9628 32.8369 57.1808 32.8369 58.1254ZM67.652 64.634C67.652 65.306 70.3601 65.8869 70.9132 65.3337C71.5945 64.6523 70.8202 64.0844 69.2112 64.0844C68.1446 64.0844 67.652 64.2581 67.652 64.634ZM33.8921 65.1398C33.7469 65.2846 33.6282 65.7381 33.6282 66.1469C33.6282 66.7891 33.8304 66.8544 35.1118 66.6265C36.8134 66.3242 37.3926 65.9213 37.0124 65.306C36.7236 64.839 34.3209 64.7108 33.8921 65.1398ZM48.8459 70.4384C48.7039 70.6683 48.6968 71.2915 48.8301 71.8234C49.0631 72.7521 49.2024 72.7901 52.3832 72.7901H55.6934L55.8679 71.6006C55.9641 70.9465 55.9546 70.3232 55.8469 70.2156C55.4561 69.8246 49.1003 70.0268 48.8459 70.4384ZM79.5208 73.1858C79.5208 73.4034 79.7095 73.5815 79.9398 73.5815C80.17 73.5815 80.2488 73.4034 80.1143 73.1858C79.9797 72.9682 79.7914 72.7901 79.6953 72.7901C79.5991 72.7901 79.5208 72.9682 79.5208 73.1858ZM45.1014 78.5117C37.3783 79.6387 29.6795 81.6707 29.3467 82.6698C29.1489 83.2634 29.5386 83.2001 33.9198 81.9303C38.1842 80.6941 38.3203 80.9568 34.1227 82.3216C32.1098 82.9757 30.4632 83.6809 30.4632 83.8886C30.4632 84.4501 31.2327 84.3528 33.7311 83.4743C36.6191 82.4589 37.6133 82.4815 35.0129 83.5032C31.6801 84.813 31.1441 85.0785 31.3719 85.3065C31.4926 85.4272 32.6027 85.2321 33.8391 84.8724C36.6615 84.0517 37.0318 84.2768 34.4104 85.2198C32.473 85.9167 31.5915 86.9527 33.3315 86.4881C36.127 85.7418 36.4273 85.834 34.0582 86.7117C33.4862 86.9234 33.2484 87.2083 33.4648 87.4223C33.68 87.6356 34.9444 87.4528 36.5954 86.9697C42.8657 85.1351 47.2975 84.5649 55.5854 84.5261C62.878 84.4925 63.852 84.5732 68.0204 85.5593C70.5077 86.1474 72.6148 86.5569 72.7026 86.4687C72.9819 86.1897 71.4849 85.5752 69.2345 85.0449C68.0378 84.7632 67.2643 84.4632 67.5159 84.3785C67.7672 84.2938 69.0391 84.5012 70.3423 84.8387C74.8366 86.0037 74.7329 85.2032 70.2236 83.9219C68.6447 83.4731 67.895 83.1229 68.4793 83.1067C69.0431 83.0913 70.3783 83.3437 71.4465 83.6678C72.5147 83.9919 73.7356 84.259 74.1601 84.2614C75.6789 84.2697 74.1553 83.5317 70.6192 82.546C66.339 81.3525 66.9328 81.1867 71.5343 82.29C75.2227 83.1744 76.3194 83.2796 75.7327 82.6928C75.5206 82.4807 73.3039 81.7716 70.8072 81.1175C67.9207 80.3613 66.9878 80.0098 68.2455 80.1523C69.3334 80.2758 71.6115 80.7396 73.3075 81.1824C76.1987 81.9374 77.3805 81.9239 76.5271 81.146C76.0405 80.702 70.3292 79.2988 65.9188 78.5394C61.6571 77.8053 50.0467 77.7903 45.1014 78.5117ZM36.991 85.4529C36.4692 85.6773 36.4019 85.8003 36.7932 85.8146C37.1196 85.8268 37.6537 85.6638 37.9801 85.4529C38.7033 84.9855 38.0786 84.9855 36.991 85.4529Z" fill="white"/>
</svg>
